<?xml version="1.0" standalone="no"?>
<!DOCTYPE svg PUBLIC "-//W3C//DTD SVG 20010904//EN"
 "http://www.w3.org/TR/2001/REC-SVG-20010904/DTD/svg10.dtd">
<svg version="1.0" xmlns="http://www.w3.org/2000/svg"
 width="1600.000000pt" height="1200.000000pt" viewBox="0 0 1600.000000 1200.000000"
 preserveAspectRatio="xMidYMid meet">

<g transform="translate(0.000000,1200.000000) scale(0.100000,-0.100000)"
fill="#000000" stroke="none">
<path d="M2855 7160 c-187 -4 -355 -10 -372 -14 -18 -4 -44 -21 -58 -38 l-25
-30 2 -976 c3 -959 3 -977 23 -1004 11 -15 29 -30 40 -34 11 -3 201 -9 423
-11 293 -4 402 -8 402 -17 -1 -30 -20 -38 -126 -47 -146 -12 -150 -13 -184
-61 -33 -46 -38 -73 -14 -82 25 -10 1357 -7 1373 3 11 7 10 16 -8 54 -34 70
-43 75 -166 82 -142 8 -149 10 -163 39 l-11 24 412 5 c227 2 422 8 435 12 13
4 28 19 33 32 14 38 12 1986 -3 2018 -6 14 -23 29 -37 33 -14 4 -238 7 -498 7
-259 0 -469 3 -466 8 5 8 -515 7 -1012 -3z m968 -7 c-13 -2 -33 -2 -45 0 -13
2 -3 4 22 4 25 0 35 -2 23 -4z m804 -206 c4 -5 8 -387 8 -850 l0 -842 -987 0
c-542 0 -990 4 -995 8 -14 14 -16 225 -8 975 l7 722 983 -2 c541 -2 987 -7
992 -11z"/>
<path d="M3392 6840 c-189 -17 -272 -39 -272 -72 0 -25 37 -60 58 -54 9 2 87
10 174 17 138 10 360 9 748 -4 l55 -2 3 37 c4 44 11 41 -208 63 -196 20 -438
26 -558 15z"/>
<path d="M3283 6684 c-82 -13 -163 -37 -163 -49 0 -17 26 -56 42 -61 10 -3 78
3 151 13 172 23 485 23 686 -1 119 -14 145 -15 152 -4 13 20 11 54 -5 67 -8 6
-80 21 -161 31 -181 24 -556 26 -702 4z"/>
<path d="M3450 6549 c-136 -9 -228 -21 -287 -40 -36 -11 -42 -33 -20 -64 15
-20 20 -20 252 5 140 16 527 7 645 -14 116 -21 110 -23 110 28 l0 44 -87 16
c-76 13 -414 39 -462 35 -9 -1 -77 -6 -151 -10z"/>
<path d="M3315 6395 c-133 -19 -185 -39 -185 -70 0 -14 8 -28 18 -33 11 -6
102 -3 247 10 239 19 370 17 638 -13 53 -6 104 -9 112 -5 23 9 19 63 -6 77
-76 40 -619 63 -824 34z"/>
<path d="M3470 6264 c-118 -11 -277 -37 -307 -49 -25 -11 -33 -20 -33 -39 0
-45 26 -49 183 -26 208 31 471 32 677 2 147 -22 155 -22 167 -6 35 48 1 68
-157 94 -122 21 -421 34 -530 24z"/>
<path d="M3430 6113 c-110 -10 -242 -34 -269 -47 -32 -17 -48 -46 -30 -57 7
-4 54 -15 104 -24 107 -19 170 -46 242 -103 59 -47 102 -106 128 -174 10 -27
22 -48 27 -48 5 0 17 14 26 31 66 120 153 213 235 252 32 15 97 34 145 42 117
21 122 22 122 50 0 27 -21 35 -160 62 -74 14 -475 26 -570 16z"/>
<path d="M3008 5571 c-80 -3 -149 -9 -153 -12 -3 -4 -3 -23 0 -42 5 -24 13
-37 28 -41 12 -3 351 -6 752 -6 567 0 736 3 755 13 32 16 41 71 13 82 -23 9
-1204 14 -1395 6z"/>
<path d="M3580 5430 c-25 -25 -26 -62 0 -85 27 -25 118 -24 137 1 18 24 16 69
-3 88 -23 24 -109 21 -134 -4z"/>
<path d="M5474 6468 l-84 -82 0 -216 0 -217 93 -7 c161 -11 461 -37 495 -42
l32 -5 0 -124 0 -125 -305 0 -305 0 0 -95 0 -95 338 0 337 0 78 78 77 77 0
226 0 226 -62 6 c-35 4 -160 13 -278 22 -118 9 -230 18 -247 21 l-33 5 0 119
0 120 305 0 305 0 0 95 0 95 -331 0 -331 0 -84 -82z"/>
<path d="M6472 6467 l-82 -82 0 -380 1 -380 79 -83 79 -83 280 1 c154 1 283 5
286 9 6 11 19 180 14 183 -2 1 -116 5 -254 8 l-250 5 -3 343 -2 342 250 0 250
0 0 100 0 100 -283 0 -282 0 -83 -83z"/>
<path d="M7435 6478 c-9 -40 -43 -190 -76 -333 -33 -143 -73 -321 -90 -395
-17 -74 -39 -166 -49 -205 -10 -38 -16 -72 -14 -75 3 -3 55 -5 116 -5 l110 0
19 60 c10 33 23 84 29 112 6 29 14 55 18 57 4 2 93 6 197 7 l190 3 29 -122 30
-122 113 0 c62 0 113 2 113 5 0 15 -71 339 -76 347 -3 5 -12 35 -19 66 -50
232 -129 576 -141 620 l-15 52 -234 0 -233 0 -17 -72z m315 -112 c0 -2 20
-102 45 -222 25 -121 45 -231 45 -246 l0 -28 -161 0 c-148 0 -160 1 -155 18 2
9 14 64 26 122 33 160 70 334 75 348 3 8 25 12 65 12 33 0 60 -2 60 -4z"/>
<path d="M8280 6005 l0 -545 105 0 105 0 1 318 c0 174 4 339 7 366 l7 49 36
-54 c20 -30 55 -90 79 -134 24 -44 63 -109 85 -145 23 -36 86 -140 139 -232
l98 -168 119 0 119 0 0 545 0 546 -102 -3 -102 -3 4 -95 c2 -52 3 -104 2 -115
-1 -11 -5 -130 -8 -265 -3 -135 -10 -249 -14 -254 -4 -4 -15 2 -23 15 -57 94
-114 190 -131 225 -12 22 -35 58 -52 80 -28 36 -108 162 -110 174 -5 31 -27
91 -36 96 -7 5 -8 3 -3 -6 5 -8 4 -11 -3 -6 -6 4 -8 14 -5 23 5 12 3 14 -7 8
-10 -6 -12 -4 -8 7 4 8 -2 21 -13 29 -10 7 -19 19 -19 27 0 7 -7 24 -16 37
-16 24 -20 25 -135 25 l-119 0 0 -545z"/>
<path d="M9750 6005 l0 -545 333 0 332 0 83 83 82 82 0 379 0 378 -82 84 -82
84 -333 0 -333 0 0 -545z m608 -3 l2 -352 -192 2 -193 3 -3 353 -2 352 192 -2
193 -3 3 -353z"/>
<path d="M10911 6443 c-13 -60 -41 -182 -62 -273 -22 -91 -52 -221 -68 -290
-17 -69 -44 -183 -60 -253 -17 -71 -31 -137 -31 -148 0 -18 8 -19 114 -19
l113 0 24 123 25 122 201 3 c155 2 202 0 205 -10 3 -7 15 -64 28 -125 l23
-113 118 0 c90 0 117 3 114 13 -2 6 -18 73 -35 147 -17 74 -48 209 -70 300
-38 161 -106 458 -131 573 l-12 57 -236 0 -236 0 -24 -107z m333 -123 c4 -25
26 -126 47 -225 22 -99 39 -190 39 -203 0 -22 -1 -22 -161 -22 l-161 0 7 48
c4 26 24 127 46 224 21 97 39 183 39 190 0 28 24 39 80 36 l55 -3 9 -45z"/>
<path d="M11710 6455 l0 -95 150 0 150 0 0 -450 0 -450 115 0 115 0 0 450 0
450 150 0 150 0 0 95 0 95 -415 0 -415 0 0 -95z"/>
<path d="M12816 6428 c-16 -68 -68 -295 -117 -506 -49 -211 -92 -401 -95 -423
l-7 -39 115 0 115 0 17 88 c10 48 22 104 27 125 l10 37 199 0 199 0 21 -97
c28 -126 40 -164 49 -159 4 3 51 6 103 7 l96 2 -2 41 c-4 56 -13 97 -129 603
l-102 443 -236 0 -236 0 -27 -122z m329 -80 c34 -151 85 -393 90 -430 l7 -48
-162 0 -162 0 4 43 c4 36 61 303 89 420 l10 37 59 0 c54 0 60 -2 65 -22z"/>
</g>
</svg>
