<?xml version="1.0" encoding="UTF-8"?>
<!DOCTYPE svg PUBLIC "-//W3C//DTD SVG 1.1//EN" "http://www.w3.org/Graphics/SVG/1.1/DTD/svg11.dtd">
<!-- Creator: CorelDRAW -->
<svg xmlns="http://www.w3.org/2000/svg" xml:space="preserve" width="25.0896mm" height="10.8515mm" version="1.1" style="shape-rendering:geometricPrecision; text-rendering:geometricPrecision; image-rendering:optimizeQuality; fill-rule:evenodd; clip-rule:evenodd"
viewBox="0 0 2513.21 1086.99"
 xmlns:xlink="http://www.w3.org/1999/xlink"
 xmlns:xodm="http://www.corel.com/coreldraw/odm/2003">
 <defs>
  <style type="text/css">
   <![CDATA[
    .fil0 {fill:#FEFEFE;fill-rule:nonzero}
    .fil1 {fill:#0C54A0;fill-rule:nonzero}
   ]]>
  </style>
 </defs>
 <g id="Слой_x0020_1">
  <metadata id="CorelCorpID_0Corel-Layer"/>
  <path class="fil0" d="M544.2 1062.96c-289.06,0 -523.35,-234.65 -523.35,-523.35 0,-289.06 234.3,-523.34 523.35,-523.34 289.06,0 523.34,234.29 523.34,523.34 0,288.71 -234.29,523.35 -523.34,523.35zm-0.71 -1062.96c-300.02,0 -543.49,243.12 -543.49,543.49 0,300.02 243.47,543.5 543.49,543.5 300.37,0 543.49,-243.48 543.49,-543.5 0,-300.37 -243.12,-543.49 -543.49,-543.49z"/>
  <path class="fil0" d="M536.43 554.1l44.88 0 -22.62 -97.18 -22.26 97.18zm313.09 60.07c42.75,0 54.77,-7.42 54.77,-7.42l11.66 59.72c0,0 -28.63,12.72 -73.15,12.72 -44.53,0 -143.11,-22.62 -143.11,-141.35 0,-118.74 101.42,-141.35 150.53,-141.35 49.12,0 69.97,14.48 69.97,14.48l-15.55 57.25c-85.16,-32.5 -128.28,18.73 -128.28,66.08 0,47 30.74,79.86 73.15,79.86zm-240.3 60.42l-14.49 -62.55 -71.38 0 -14.48 62.55 -76.68 0 81.28 -273.51 96.46 0 81.99 273.51 -82.69 0zm-194.01 -101.77c0,32.51 -22.26,106.37 -115.55,106.37 -93.65,0 -115.56,-67.84 -115.56,-109.55l0 -169.98 74.56 0 0 173.15c0,18.73 8.13,46.65 38.53,46.65 30.74,0 42.75,-24.03 42.75,-42.76l0 -177.04 75.27 0 0 173.15zm610.63 -31.44c0,-266.45 -215.9,-482.37 -482.36,-482.37 -266.09,0 -482,215.91 -482,482.37 0,266.44 215.91,482.36 482,482.36 25.09,0 49.82,-2.12 73.85,-5.66 50.89,-20.85 124.74,-63.96 124.74,-138.16 0,-113.43 -218.03,-154.07 -218.03,-154.07l129.34 0c0,0 145.59,40.28 145.59,135.34 0,68.21 -71.38,118.03 -110.96,140.29 7.42,-2.11 50.54,-19.43 88.34,-54.06 38.53,-34.99 42.41,-63.96 40.99,-96.12 -2.46,-75.62 -125.44,-125.44 -125.44,-125.44l297.18 0c23.68,-56.9 36.75,-119.09 36.75,-184.46zm-467.16 -84.46l-22.26 97.18 44.88 0 -22.62 -97.18zm0 0l-22.26 97.18 44.88 0 -22.62 -97.18z"/>
  <polygon class="fil0" points="1317.74,194.71 1317.74,227.93 1308.9,227.93 1259.78,363.27 1215.25,363.27 1215.25,330.76 1229.04,330.76 1236.46,311.33 1199.36,227.93 1188.75,227.93 1188.75,193.3 1236.46,193.3 1256.25,254.08 1273.91,194.71 "/>
  <polygon class="fil0" points="1453.06,329.94 1453.06,267.07 1427.43,267.07 1446.59,227.14 1461.36,227.14 1461.36,193.86 1417.11,193.86 1387.86,264.39 1382.21,264.39 1382.21,227.81 1382.21,194.56 1326.97,194.56 1326.97,227.81 1336.94,227.81 1336.94,329.94 1326.97,329.94 1326.97,363.19 1382.21,363.19 1382.21,352.91 1382.21,329.94 1382.21,297 1411.47,297 1411.47,329.94 1411.47,349.55 1411.47,363.19 1466.7,363.19 1466.7,329.94 "/>
  <polygon class="fil0" points="1320.31,859.09 1320.31,796.23 1294.69,796.23 1313.84,756.29 1328.62,756.29 1328.62,723 1284.37,723 1255.11,793.53 1249.46,793.53 1249.46,756.96 1249.46,723.71 1194.23,723.71 1194.23,756.96 1204.2,756.96 1204.2,859.09 1194.23,859.09 1194.23,892.34 1249.46,892.34 1249.46,882.06 1249.46,859.09 1249.46,826.16 1278.72,826.16 1278.72,859.09 1278.72,878.69 1278.72,892.34 1333.95,892.34 1333.95,859.09 "/>
  <polygon class="fil0" points="2354.65,329.94 2354.65,267.07 2329.04,267.07 2348.19,227.14 2362.96,227.14 2362.96,193.86 2318.72,193.86 2289.46,264.39 2283.8,264.39 2283.8,227.81 2283.8,194.56 2228.57,194.56 2228.57,227.81 2238.53,227.81 2238.53,329.94 2228.57,329.94 2228.57,363.19 2283.8,363.19 2283.8,352.91 2283.8,329.94 2283.8,297 2313.06,297 2313.06,329.94 2313.06,349.55 2313.06,363.19 2368.29,363.19 2368.29,329.94 "/>
  <path class="fil0" d="M1555.56 266.8l-29.33 0 0 -38.88 29.33 0 0 38.88zm14.84 -72.79l-52.65 0 -44.53 0 0 33.22 9.9 0 0 102.82 -9.9 0 0 33.23 66.43 0 0 -33.23 -13.42 0 0 -37.8 45.94 0c21.91,0 28.62,-19.08 28.62,-27.57l0 -46.65c0,-18.37 -18.72,-24.02 -30.39,-24.02z"/>
  <path class="fil0" d="M1421.27 531.13l-28.98 0 0 -38.88 28.98 0 0 38.88zm15.2 -72.8l-53 0 -44.17 0 0 33.22 9.54 0 0 102.83 -9.54 0 0 33.22 66.08 0 0 -33.22 -13.08 0 0 -37.8 45.95 0c21.91,0 28.62,-19.08 28.62,-27.57l0 -46.65c0,-18.37 -18.73,-24.03 -30.39,-24.03z"/>
  <polygon class="fil0" points="1808.65,227.3 1808.65,194.05 1744.13,194.05 1744.13,227.3 1754.77,227.3 1754.77,329.92 1744.13,329.92 1744.13,363.21 1808.65,363.21 1808.65,329.92 1798.02,329.92 1798.02,227.3 "/>
  <polygon class="fil0" points="1680.43,491.54 1680.43,458.29 1615.9,458.29 1615.9,491.54 1626.54,491.54 1626.54,594.16 1615.9,594.16 1615.9,627.45 1680.43,627.45 1680.43,594.16 1669.79,594.16 1669.79,491.54 "/>
  <polygon class="fil0" points="2170.73,756.35 2170.73,723.09 2106.2,723.09 2106.2,756.35 2116.84,756.35 2116.84,858.97 2106.2,858.97 2106.2,892.26 2170.73,892.26 2170.73,858.97 2160.09,858.97 2160.09,756.35 "/>
  <polygon class="fil0" points="1805.25,756.35 1805.25,723.09 1668.28,723.09 1668.28,756.35 1678.92,756.35 1678.92,858.97 1668.28,858.97 1668.28,892.26 1722.17,892.26 1722.17,756.35 1751.36,756.35 1751.36,892.26 1805.25,892.26 1805.25,858.97 1794.61,858.97 1794.61,756.35 "/>
  <path class="fil0" d="M1765.78 167.91c0,8.27 -6.71,14.99 -14.99,14.99 -8.26,0 -14.95,-6.71 -14.95,-14.99 0,-8.26 6.68,-14.98 14.95,-14.98 8.27,0 14.99,6.71 14.99,14.98z"/>
  <path class="fil0" d="M1817.68 167.91c0,8.27 -6.71,14.99 -14.98,14.99 -8.27,0 -14.96,-6.71 -14.96,-14.99 0,-8.26 6.68,-14.98 14.96,-14.98 8.26,0 14.98,6.71 14.98,14.98z"/>
  <path class="fil0" d="M1655.56 292.24l10.25 -71.74 9.9 71.74 -20.14 0zm72.8 37.81l-25.8 -136.05 -71.02 0 -26.87 136.05 -12.01 0 0 33.22 54.77 0 0 -13.78 4.24 -31.1 27.57 0 3.89 28.28 0 16.61 54.77 0 0 -33.22 -9.54 0z"/>
  <path class="fil0" d="M1248.47 556.57l10.25 -71.74 10.26 71.74 -20.5 0zm72.8 37.8l-25.44 -136.05 -71.38 0 -26.5 136.05 -12.02 0 0 33.22 54.42 0 0 -13.77 4.6 -31.1 27.56 0 3.89 28.27 0 16.61 54.42 0 0 -33.22 -9.54 0z"/>
  <path class="fil0" d="M2034.03 556.57l10.25 -71.74 9.9 71.74 -20.14 0zm72.79 37.8l-25.79 -136.05 -71.03 0 -26.5 136.05 -12.01 0 0 33.22 54.42 0 0 -13.77 4.59 -31.1 27.57 0 3.89 28.27 0 16.61 54.42 0 0 -33.22 -9.55 0z"/>
  <path class="fil0" d="M1871.47 821.6l9.9 -72.09 10.25 72.09 -20.14 0zm72.79 37.45l-25.79 -136.05 -71.38 0 -26.5 136.05 -12.01 0 0 33.22 54.77 0 0 -13.42 4.24 -31.45 27.57 0 3.89 28.27 0 16.61 54.77 0 0 -33.22 -9.55 0z"/>
  <path class="fil0" d="M2430.87 292.24l10.25 -71.74 10.25 71.74 -20.49 0zm72.79 37.81l-25.44 -136.05 -71.38 0 -26.5 136.05 -12.01 0 0 33.22 54.41 0 0 -13.78 4.6 -31.1 27.57 0 3.89 28.28 0 16.61 54.42 0 0 -33.22 -9.55 0z"/>
  <polygon class="fil0" points="1956.01,227.3 1956.01,194.05 1900.31,194.05 1900.31,219.49 1900.31,227.3 1900.31,258.16 1874.66,258.16 1874.66,227.3 1874.66,219.49 1874.66,194.05 1818.96,194.05 1818.96,227.3 1830.24,227.3 1830.24,329.92 1818.96,329.92 1818.96,363.21 1874.66,363.21 1874.66,343.24 1874.66,329.92 1874.66,293.6 1900.31,293.6 1900.31,329.92 1900.31,343.24 1900.31,363.21 1956.01,363.21 1956.01,329.92 1944.74,329.92 1944.74,227.3 "/>
  <polygon class="fil0" points="1966.65,491.54 1966.65,458.29 1910.96,458.29 1910.96,483.74 1910.96,491.54 1910.96,522.39 1885.31,522.39 1885.31,491.54 1885.31,483.74 1885.31,458.29 1829.61,458.29 1829.61,491.54 1840.88,491.54 1840.88,594.16 1829.61,594.16 1829.61,627.45 1885.31,627.45 1885.31,607.49 1885.31,594.16 1885.31,557.84 1910.96,557.84 1910.96,594.16 1910.96,607.49 1910.96,627.45 1966.65,627.45 1966.65,594.16 1955.37,594.16 1955.37,491.54 "/>
  <polygon class="fil0" points="2098.4,756.35 2098.4,723.09 2042.7,723.09 2042.7,748.53 2042.7,756.35 2042.7,787.2 2017.05,787.2 2017.05,756.35 2017.05,748.53 2017.05,723.09 1961.35,723.09 1961.35,756.35 1972.63,756.35 1972.63,858.97 1961.35,858.97 1961.35,892.26 2017.05,892.26 2017.05,872.28 2017.05,858.97 2017.05,822.64 2042.7,822.64 2042.7,858.97 2042.7,872.28 2042.7,892.26 2098.4,892.26 2098.4,858.97 2087.13,858.97 2087.13,756.35 "/>
  <path class="fil0" d="M2173.25 326.52l-28.27 0 0 -37.81 28.27 0 0 37.81zm12.02 -63.97l-40.29 0 0 -35.33 8.48 0 0 -33.22 -64.67 0 0 33.22 11.66 0 0 102.82 -11.66 0 0 33.23 102.12 0c9.19,0 26.86,-10.25 26.86,-28.98l0 -47.35c0,-14.14 -9.89,-24.39 -32.5,-24.39z"/>
  <polygon class="fil0" points="1661.35,756.35 1661.35,723.09 1607.46,723.09 1567.67,800.69 1526.89,723.09 1473,723.09 1473,756.35 1483.64,756.35 1483.64,858.97 1473,858.97 1473,892.26 1526.89,892.26 1526.89,801.04 1567.67,864.58 1607.46,802.61 1607.46,892.26 1661.35,892.26 1661.35,858.97 1650.71,858.97 1650.71,756.35 "/>
  <path class="fil0" d="M2078.52 246.6l0 -52.72 -78.34 0c-16.16,0 -28.95,11.31 -28.95,26.36l0 114.17c0,14.81 8.13,28.8 25.44,28.8l81.85 0 0 -63.05 -36.43 0 0 29.62 -28.63 0 0 -102.97 28.63 0 0 19.78 36.43 0z"/>
  <polygon class="fil0" points="1598.16,491.54 1607.66,491.54 1607.66,458.29 1551.79,458.29 1551.79,483.81 1541.26,500.17 1515.85,458.29 1469.95,458.29 1469.95,491.54 1482.24,491.54 1514.23,542.08 1480.66,594.16 1469.95,594.16 1469.95,627.45 1525.82,627.45 1525.82,594.16 1537.06,578.23 1551.79,601.52 1551.79,627.45 1607.66,627.45 1607.66,594.16 1598.26,594.16 1564.76,538.93 "/>
  <path class="fil0" d="M1772.53 525.12l-28.27 0 0 -33.58 28.27 0 0 33.58zm0 65.73l-28.27 0 0 -33.58 28.27 0 0 33.58zm44.17 -75.28l0 -31.09c0,-19.08 -15.55,-26.15 -30.74,-26.15l-21.21 0 -74.92 0 0 33.22 11.31 0 0 102.48 -11.31 0 0 33.57 94.36 0c25.79,0 32.5,-18.37 32.5,-28.62l0 -33.22c0,-18.73 -22.97,-26.15 -22.97,-26.15 13.43,0 22.97,-15.2 22.97,-24.03z"/>
  <path class="fil0" d="M1415.27 858.7l-29.34 0 0 -101.77 29.34 0 0 101.77zm9.19 -135.7l-46.65 0c-19.78,0 -36.04,16.26 -36.04,36.05l0 97.52c0,19.44 16.26,35.69 36.04,35.69l46.65 0c19.43,0 35.69,-16.25 35.69,-35.69l0 -97.52c0,-19.79 -16.26,-36.05 -35.69,-36.05z"/>
  <path class="fil0" d="M2263.72 793.68l-29.68 0 0 -36.04 29.68 0 0 36.04zm54.42 -37.45l0 -33.23 -98.95 0c-10.25,0 -28.27,7.07 -28.27,25.8l0 34.98c0,8.83 9.19,24.03 26.5,24.03 -1.41,0 -26.5,0.35 -26.5,27.21l0 24.03 -10.6 0 0 33.22 38.87 0c7.78,0 14.85,-0.7 14.85,-14.13l0 -55.47 29.68 0 0 69.61 54.42 0 0 -33.22 -10.6 0 0 -102.82 10.6 0z"/>
  <path class="fil1" d="M544.2 1062.96c-289.06,0 -523.35,-234.65 -523.35,-523.35 0,-289.06 234.3,-523.34 523.35,-523.34 289.06,0 523.34,234.29 523.34,523.34 0,288.71 -234.29,523.35 -523.34,523.35zm-0.71 -1062.96c-300.02,0 -543.49,243.12 -543.49,543.49 0,300.02 243.47,543.5 543.49,543.5 300.37,0 543.49,-243.48 543.49,-543.5 0,-300.37 -243.12,-543.49 -543.49,-543.49z"/>
  <path class="fil1" d="M536.43 554.1l44.88 0 -22.62 -97.18 -22.26 97.18zm313.09 60.07c42.75,0 54.77,-7.42 54.77,-7.42l11.66 59.72c0,0 -28.63,12.72 -73.15,12.72 -44.53,0 -143.11,-22.62 -143.11,-141.35 0,-118.74 101.42,-141.35 150.53,-141.35 49.12,0 69.97,14.48 69.97,14.48l-15.55 57.25c-85.16,-32.5 -128.28,18.73 -128.28,66.08 0,47 30.74,79.86 73.15,79.86zm-240.3 60.42l-14.49 -62.55 -71.38 0 -14.48 62.55 -76.68 0 81.28 -273.51 96.46 0 81.99 273.51 -82.69 0zm-194.01 -101.77c0,32.51 -22.26,106.37 -115.55,106.37 -93.65,0 -115.56,-67.84 -115.56,-109.55l0 -169.98 74.56 0 0 173.15c0,18.73 8.13,46.65 38.53,46.65 30.74,0 42.75,-24.03 42.75,-42.76l0 -177.04 75.27 0 0 173.15zm610.63 -31.44c0,-266.45 -215.9,-482.37 -482.36,-482.37 -266.09,0 -482,215.91 -482,482.37 0,266.44 215.91,482.36 482,482.36 25.09,0 49.82,-2.12 73.85,-5.66 50.89,-20.85 124.74,-63.96 124.74,-138.16 0,-113.43 -218.03,-154.07 -218.03,-154.07l129.34 0c0,0 145.59,40.28 145.59,135.34 0,68.21 -71.38,118.03 -110.96,140.29 7.42,-2.11 50.54,-19.43 88.34,-54.06 38.53,-34.99 42.41,-63.96 40.99,-96.12 -2.46,-75.62 -125.44,-125.44 -125.44,-125.44l297.18 0c23.68,-56.9 36.75,-119.09 36.75,-184.46zm-467.16 -84.46l-22.26 97.18 44.88 0 -22.62 -97.18zm0 0l-22.26 97.18 44.88 0 -22.62 -97.18z"/>
  <polygon class="fil1" points="1317.74,194.71 1317.74,227.93 1308.9,227.93 1259.78,363.27 1215.25,363.27 1215.25,330.76 1229.04,330.76 1236.46,311.33 1199.36,227.93 1188.75,227.93 1188.75,193.3 1236.46,193.3 1256.25,254.08 1273.91,194.71 "/>
  <polygon class="fil1" points="1453.06,329.94 1453.06,267.07 1427.43,267.07 1446.59,227.14 1461.36,227.14 1461.36,193.86 1417.11,193.86 1387.86,264.39 1382.21,264.39 1382.21,227.81 1382.21,194.56 1326.97,194.56 1326.97,227.81 1336.94,227.81 1336.94,329.94 1326.97,329.94 1326.97,363.19 1382.21,363.19 1382.21,352.91 1382.21,329.94 1382.21,297 1411.47,297 1411.47,329.94 1411.47,349.55 1411.47,363.19 1466.7,363.19 1466.7,329.94 "/>
  <polygon class="fil1" points="1320.31,859.09 1320.31,796.23 1294.69,796.23 1313.84,756.29 1328.62,756.29 1328.62,723 1284.37,723 1255.11,793.53 1249.46,793.53 1249.46,756.96 1249.46,723.71 1194.23,723.71 1194.23,756.96 1204.2,756.96 1204.2,859.09 1194.23,859.09 1194.23,892.34 1249.46,892.34 1249.46,882.06 1249.46,859.09 1249.46,826.16 1278.72,826.16 1278.72,859.09 1278.72,878.69 1278.72,892.34 1333.95,892.34 1333.95,859.09 "/>
  <polygon class="fil1" points="2354.65,329.94 2354.65,267.07 2329.04,267.07 2348.19,227.14 2362.96,227.14 2362.96,193.86 2318.72,193.86 2289.46,264.39 2283.8,264.39 2283.8,227.81 2283.8,194.56 2228.57,194.56 2228.57,227.81 2238.53,227.81 2238.53,329.94 2228.57,329.94 2228.57,363.19 2283.8,363.19 2283.8,352.91 2283.8,329.94 2283.8,297 2313.06,297 2313.06,329.94 2313.06,349.55 2313.06,363.19 2368.29,363.19 2368.29,329.94 "/>
  <path class="fil1" d="M1555.56 266.8l-29.33 0 0 -38.88 29.33 0 0 38.88zm14.84 -72.79l-52.65 0 -44.53 0 0 33.22 9.9 0 0 102.82 -9.9 0 0 33.23 66.43 0 0 -33.23 -13.42 0 0 -37.8 45.94 0c21.91,0 28.62,-19.08 28.62,-27.57l0 -46.65c0,-18.37 -18.72,-24.02 -30.39,-24.02z"/>
  <path class="fil1" d="M1421.27 531.13l-28.98 0 0 -38.88 28.98 0 0 38.88zm15.2 -72.8l-53 0 -44.17 0 0 33.22 9.54 0 0 102.83 -9.54 0 0 33.22 66.08 0 0 -33.22 -13.08 0 0 -37.8 45.95 0c21.91,0 28.62,-19.08 28.62,-27.57l0 -46.65c0,-18.37 -18.73,-24.03 -30.39,-24.03z"/>
  <polygon class="fil1" points="1808.65,227.3 1808.65,194.05 1744.13,194.05 1744.13,227.3 1754.77,227.3 1754.77,329.92 1744.13,329.92 1744.13,363.21 1808.65,363.21 1808.65,329.92 1798.02,329.92 1798.02,227.3 "/>
  <polygon class="fil1" points="1680.43,491.54 1680.43,458.29 1615.9,458.29 1615.9,491.54 1626.54,491.54 1626.54,594.16 1615.9,594.16 1615.9,627.45 1680.43,627.45 1680.43,594.16 1669.79,594.16 1669.79,491.54 "/>
  <polygon class="fil1" points="2170.73,756.35 2170.73,723.09 2106.2,723.09 2106.2,756.35 2116.84,756.35 2116.84,858.97 2106.2,858.97 2106.2,892.26 2170.73,892.26 2170.73,858.97 2160.09,858.97 2160.09,756.35 "/>
  <polygon class="fil1" points="1805.25,756.35 1805.25,723.09 1668.28,723.09 1668.28,756.35 1678.92,756.35 1678.92,858.97 1668.28,858.97 1668.28,892.26 1722.17,892.26 1722.17,756.35 1751.36,756.35 1751.36,892.26 1805.25,892.26 1805.25,858.97 1794.61,858.97 1794.61,756.35 "/>
  <path class="fil1" d="M1765.78 167.91c0,8.27 -6.71,14.99 -14.99,14.99 -8.26,0 -14.95,-6.71 -14.95,-14.99 0,-8.26 6.68,-14.98 14.95,-14.98 8.27,0 14.99,6.71 14.99,14.98z"/>
  <path class="fil1" d="M1817.68 167.91c0,8.27 -6.71,14.99 -14.98,14.99 -8.27,0 -14.96,-6.71 -14.96,-14.99 0,-8.26 6.68,-14.98 14.96,-14.98 8.26,0 14.98,6.71 14.98,14.98z"/>
  <path class="fil1" d="M1655.56 292.24l10.25 -71.74 9.9 71.74 -20.14 0zm72.8 37.81l-25.8 -136.05 -71.02 0 -26.87 136.05 -12.01 0 0 33.22 54.77 0 0 -13.78 4.24 -31.1 27.57 0 3.89 28.28 0 16.61 54.77 0 0 -33.22 -9.54 0z"/>
  <path class="fil1" d="M1248.47 556.57l10.25 -71.74 10.26 71.74 -20.5 0zm72.8 37.8l-25.44 -136.05 -71.38 0 -26.5 136.05 -12.02 0 0 33.22 54.42 0 0 -13.77 4.6 -31.1 27.56 0 3.89 28.27 0 16.61 54.42 0 0 -33.22 -9.54 0z"/>
  <path class="fil1" d="M2034.03 556.57l10.25 -71.74 9.9 71.74 -20.14 0zm72.79 37.8l-25.79 -136.05 -71.03 0 -26.5 136.05 -12.01 0 0 33.22 54.42 0 0 -13.77 4.59 -31.1 27.57 0 3.89 28.27 0 16.61 54.42 0 0 -33.22 -9.55 0z"/>
  <path class="fil1" d="M1871.47 821.6l9.9 -72.09 10.25 72.09 -20.14 0zm72.79 37.45l-25.79 -136.05 -71.38 0 -26.5 136.05 -12.01 0 0 33.22 54.77 0 0 -13.42 4.24 -31.45 27.57 0 3.89 28.27 0 16.61 54.77 0 0 -33.22 -9.55 0z"/>
  <path class="fil1" d="M2430.87 292.24l10.25 -71.74 10.25 71.74 -20.49 0zm72.79 37.81l-25.44 -136.05 -71.38 0 -26.5 136.05 -12.01 0 0 33.22 54.41 0 0 -13.78 4.6 -31.1 27.57 0 3.89 28.28 0 16.61 54.42 0 0 -33.22 -9.55 0z"/>
  <polygon class="fil1" points="1956.01,227.3 1956.01,194.05 1900.31,194.05 1900.31,219.49 1900.31,227.3 1900.31,258.16 1874.66,258.16 1874.66,227.3 1874.66,219.49 1874.66,194.05 1818.96,194.05 1818.96,227.3 1830.24,227.3 1830.24,329.92 1818.96,329.92 1818.96,363.21 1874.66,363.21 1874.66,343.24 1874.66,329.92 1874.66,293.6 1900.31,293.6 1900.31,329.92 1900.31,343.24 1900.31,363.21 1956.01,363.21 1956.01,329.92 1944.74,329.92 1944.74,227.3 "/>
  <polygon class="fil1" points="1966.65,491.54 1966.65,458.29 1910.96,458.29 1910.96,483.74 1910.96,491.54 1910.96,522.39 1885.31,522.39 1885.31,491.54 1885.31,483.74 1885.31,458.29 1829.61,458.29 1829.61,491.54 1840.88,491.54 1840.88,594.16 1829.61,594.16 1829.61,627.45 1885.31,627.45 1885.31,607.49 1885.31,594.16 1885.31,557.84 1910.96,557.84 1910.96,594.16 1910.96,607.49 1910.96,627.45 1966.65,627.45 1966.65,594.16 1955.37,594.16 1955.37,491.54 "/>
  <polygon class="fil1" points="2098.4,756.35 2098.4,723.09 2042.7,723.09 2042.7,748.53 2042.7,756.35 2042.7,787.2 2017.05,787.2 2017.05,756.35 2017.05,748.53 2017.05,723.09 1961.35,723.09 1961.35,756.35 1972.63,756.35 1972.63,858.97 1961.35,858.97 1961.35,892.26 2017.05,892.26 2017.05,872.28 2017.05,858.97 2017.05,822.64 2042.7,822.64 2042.7,858.97 2042.7,872.28 2042.7,892.26 2098.4,892.26 2098.4,858.97 2087.13,858.97 2087.13,756.35 "/>
  <path class="fil1" d="M2173.25 326.52l-28.27 0 0 -37.81 28.27 0 0 37.81zm12.02 -63.97l-40.29 0 0 -35.33 8.48 0 0 -33.22 -64.67 0 0 33.22 11.66 0 0 102.82 -11.66 0 0 33.23 102.12 0c9.19,0 26.86,-10.25 26.86,-28.98l0 -47.35c0,-14.14 -9.89,-24.39 -32.5,-24.39z"/>
  <polygon class="fil1" points="1661.35,756.35 1661.35,723.09 1607.46,723.09 1567.67,800.69 1526.89,723.09 1473,723.09 1473,756.35 1483.64,756.35 1483.64,858.97 1473,858.97 1473,892.26 1526.89,892.26 1526.89,801.04 1567.67,864.58 1607.46,802.61 1607.46,892.26 1661.35,892.26 1661.35,858.97 1650.71,858.97 1650.71,756.35 "/>
  <path class="fil1" d="M2078.52 246.6l0 -52.72 -78.34 0c-16.16,0 -28.95,11.31 -28.95,26.36l0 114.17c0,14.81 8.13,28.8 25.44,28.8l81.85 0 0 -63.05 -36.43 0 0 29.62 -28.63 0 0 -102.97 28.63 0 0 19.78 36.43 0z"/>
  <polygon class="fil1" points="1598.16,491.54 1607.66,491.54 1607.66,458.29 1551.79,458.29 1551.79,483.81 1541.26,500.17 1515.85,458.29 1469.95,458.29 1469.95,491.54 1482.24,491.54 1514.23,542.08 1480.66,594.16 1469.95,594.16 1469.95,627.45 1525.82,627.45 1525.82,594.16 1537.06,578.23 1551.79,601.52 1551.79,627.45 1607.66,627.45 1607.66,594.16 1598.26,594.16 1564.76,538.93 "/>
  <path class="fil1" d="M1772.53 525.12l-28.27 0 0 -33.58 28.27 0 0 33.58zm0 65.73l-28.27 0 0 -33.58 28.27 0 0 33.58zm44.17 -75.28l0 -31.09c0,-19.08 -15.55,-26.15 -30.74,-26.15l-21.21 0 -74.92 0 0 33.22 11.31 0 0 102.48 -11.31 0 0 33.57 94.36 0c25.79,0 32.5,-18.37 32.5,-28.62l0 -33.22c0,-18.73 -22.97,-26.15 -22.97,-26.15 13.43,0 22.97,-15.2 22.97,-24.03z"/>
  <path class="fil1" d="M1415.27 858.7l-29.34 0 0 -101.77 29.34 0 0 101.77zm9.19 -135.7l-46.65 0c-19.78,0 -36.04,16.26 -36.04,36.05l0 97.52c0,19.44 16.26,35.69 36.04,35.69l46.65 0c19.43,0 35.69,-16.25 35.69,-35.69l0 -97.52c0,-19.79 -16.26,-36.05 -35.69,-36.05z"/>
  <path class="fil1" d="M2263.72 793.68l-29.68 0 0 -36.04 29.68 0 0 36.04zm54.42 -37.45l0 -33.23 -98.95 0c-10.25,0 -28.27,7.07 -28.27,25.8l0 34.98c0,8.83 9.19,24.03 26.5,24.03 -1.41,0 -26.5,0.35 -26.5,27.21l0 24.03 -10.6 0 0 33.22 38.87 0c7.78,0 14.85,-0.7 14.85,-14.13l0 -55.47 29.68 0 0 69.61 54.42 0 0 -33.22 -10.6 0 0 -102.82 10.6 0z"/>
 </g>
</svg>
